<svg width="1386" height="332" viewBox="0 0 1386 332" fill="none" xmlns="http://www.w3.org/2000/svg">
<path d="M272.554 153.603L153.603 34.6528L34.653 153.603L153.603 272.554L272.554 153.603Z" stroke="black" stroke-width="69.306" stroke-miterlimit="1.5" stroke-linecap="round" stroke-linejoin="round"/>
<path d="M186.508 246.349L237.233 297.073L320.174 214.135" stroke="black" stroke-width="69.306" stroke-miterlimit="1.5" stroke-linecap="round" stroke-linejoin="round"/>
<path d="M466.331 178.597H511.985L528.569 199.252L556.498 230.955L592.867 274.897H540.808L514.915 244.932L497.736 219.907L466.331 178.597ZM484.056 261.789C464.369 261.789 446.569 257.519 430.606 249.003C414.643 240.463 402.032 227.927 392.722 211.392C383.412 194.858 378.745 174.6 378.745 150.668C378.745 126.512 383.412 106.155 392.722 89.5716C402.032 72.9879 414.643 60.4505 430.606 51.96C446.569 43.4696 464.369 39.2251 484.056 39.2251C503.743 39.2251 521.543 43.4696 537.456 51.96C553.345 60.4505 565.981 72.9879 575.341 89.5716C584.7 106.155 589.392 126.512 589.392 150.668C589.392 174.699 584.7 195.007 575.341 211.541C565.981 228.075 553.345 240.587 537.456 249.078C521.543 257.543 503.743 261.789 484.056 261.789ZM484.056 210.598C493.862 210.598 502.08 208.289 508.733 203.672C515.362 199.079 520.376 192.301 523.777 183.388C527.179 174.476 528.867 163.553 528.867 150.668C528.867 137.659 527.179 126.686 523.777 117.724C520.376 108.737 515.362 101.959 508.733 97.3418C502.08 92.749 493.862 90.4406 484.056 90.4406C474.374 90.4406 466.206 92.749 459.553 97.3418C452.9 101.959 447.86 108.737 444.435 117.724C440.984 126.686 439.271 137.659 439.271 150.668C439.271 163.553 440.984 174.476 444.435 183.388C447.86 192.301 452.9 199.079 459.553 203.672C466.206 208.289 474.374 210.598 484.056 210.598Z" fill="black"/>
<path d="M710.418 261.49C691.799 261.49 675.463 258.238 661.461 251.684C647.435 245.13 636.537 235.82 628.741 223.755C620.921 211.689 617.024 197.389 617.024 180.905V42.1533H675.787V175.965C675.787 182.767 677.3 188.75 680.304 193.939C683.308 199.128 687.405 203.199 692.594 206.153C697.782 209.108 703.715 210.597 710.418 210.597C717.196 210.597 723.204 209.108 728.442 206.153C733.681 203.199 737.801 199.128 740.805 193.939C743.809 188.75 745.324 182.767 745.324 175.965V42.1533H804.086V180.905C804.086 197.389 800.164 211.689 792.294 223.755C784.449 235.82 773.501 245.13 759.425 251.684C745.373 258.238 729.038 261.49 710.418 261.49Z" fill="black"/>
<path d="M832.017 258.883V42.1533H988.245V89.5708H890.779V126.214H980.103V172.489H890.779V211.466H987.674V258.883H832.017Z" fill="black"/>
<path d="M1107.95 261.49C1089.33 261.49 1073.02 258.238 1059.02 251.684C1045 245.13 1034.1 235.82 1026.28 223.755C1018.48 211.689 1014.58 197.389 1014.58 180.905V42.1533H1073.35V175.965C1073.35 182.767 1074.84 188.75 1077.84 193.939C1080.84 199.128 1084.94 203.199 1090.13 206.153C1095.32 209.108 1101.28 210.597 1107.95 210.597C1114.76 210.597 1120.76 209.108 1126 206.153C1131.24 203.199 1135.36 199.128 1138.37 193.939C1141.37 188.75 1142.86 182.767 1142.86 175.965V42.1533H1201.65V180.905C1201.65 197.389 1197.7 211.689 1189.85 223.755C1182.01 235.82 1171.04 245.13 1156.99 251.684C1142.91 258.238 1126.57 261.49 1107.95 261.49Z" fill="black"/>
<path d="M1229.58 258.883V42.1533H1385.8V89.5708H1288.34V126.214H1377.66V172.489H1288.34V211.466H1385.21V258.883H1229.58Z" fill="black"/>
</svg>
